<svg version="1.2" xmlns="http://www.w3.org/2000/svg" viewBox="0 0 1559 1572" width="1559" height="1572">
	<path id="Layer" fill-rule="evenodd" fill="#0e2c4f" class="s0" d="m779.5 1572c-431.1 0-779.5-351.3-779.5-786 0-434.7 348.4-786 779.5-786 431.1 0 779.5 351.3 779.5 786 0 434.7-348.4 786-779.5 786zm697.1-786c0-391.3-312.2-706.6-700.5-706.6-387.8 0-700.5 315.3-700.5 706.6 0 128 37.6 249.3 95.9 352.9l604.6-3.4c3.4 0 3.4 3.4 6.8 3.4l188.8 152.5c3.8 3.4 3.8 3.4 7.2 3.4h284.8c133.9-128.1 216.3-308.1 212.9-508.8zm-981.9-426l106.1-145.3c3.8-3.8 7.2-3.8 7.2 0l106.4 145.3c3.4 0 0 6.8-3.3 6.8h-213c-3.4 0-7.2-3.4-3.4-6.8zm707.3 550.7l-17.3 30.8v270c0 0 0 3.8-3.4 3.8h-174.9c-3.4 0-3.4-3.8-7.2-3.8l-123.4-96.7c-3.4 0-3.4-3.4-3.4-3.4v-169.9l-13.9-30.8c-3.4-3.4 0-7.2 3.4-7.2h336.7c3.4 0 3.4 3.4 3.4 7.2zm-388.3-239.2v34.6l-37.6 90v256.5c0 0 0 3.4-3.4 3.4h-340.1c0 0-3.3 0-3.3-3.4v-256.5l-37.6-90v-34.6c0 0 0-3.4 3.3-3.4h418.7c0 0 3.8 0 0 3.4zm-109.8-235.4l147.8 148.8c0 3.8-3.3 7.1-6.7 7.1h-484.6c-3.4 0-6.8-7.1-3.4-7.1l147.9-148.8zm498.1 391.3c3.4 3.4 0 6.8-3.8 6.8h-336.3c-3.4 0-3.4-3.4-3.4-6.8l24.1-76.1c3.4-3.8 10.1-3.8 10.1 0l30.9 72.7c3.4 3.4 10.5 3.4 10.5 0l89.2-214.6c3.4-3.8 10.1-3.8 10.1 0l89.6 214.6c3.4 3.4 10.1 3.4 10.1 0l27.5-72.7c3.4-3.8 10.1-3.8 10.1 0z"/>
</svg>
